<svg data-v-6805eed4="" version="1.0" xmlns="http://www.w3.org/2000/svg" xmlns:xlink="http://www.w3.org/1999/xlink" width="100%" height="100%" viewBox="0 0 340.000000 250.000000" preserveAspectRatio="xMidYMid meet" color-interpolation-filters="sRGB" style="margin: auto;"> <rect data-v-6805eed4="" x="0" y="0" width="100%" height="100%" fill="#FFFFFF" fill-opacity="1" class="background"></rect> <rect data-v-6805eed4="" x="0" y="0" width="100%" height="100%" fill="url(#watermark)" fill-opacity="1" class="watermarklayer"></rect> <g data-v-6805eed4="" fill="#000000" class="icon-text-wrapper icon-svg-group iconsvg" transform="translate(107.94499969482422,62.5958137512207)"><g class="iconsvg-imagesvg" transform="translate(32.05500030517578,0)"><g><rect fill="#000000" fill-opacity="0" stroke-width="2" x="0" y="0" width="60" height="58.78837166008564" class="image-rect"></rect> <svg filter="url(#colors5404732428)" x="0" y="0" width="60" height="58.78837166008564" filtersec="colorsf8240122072" class="image-svg-svg primary" style="overflow: visible;"><svg xmlns="http://www.w3.org/2000/svg" data-name="Layer 2" viewBox="8 8.969695091247559 48 47.03056335449219" x="0px" y="0px"><title>Machine Learning - 25 - Expanded - 64 - Stroke 2 - 2020</title><path d="M13,31a5,5,0,1,1,5-5A5,5,0,0,1,13,31Zm0-8a3,3,0,1,0,3,3A3,3,0,0,0,13,23Z"></path><path d="M51,22a4.94,4.94,0,0,1-2.37-.6,4.48,4.48,0,0,1-1-.73,4.77,4.77,0,0,1-1.53-2.77A4,4,0,0,1,46,17a5,5,0,1,1,5,5Zm0-8a3,3,0,0,0-3,3,2.51,2.51,0,0,0,0,.51A2.91,2.91,0,0,0,49,19.2a2.57,2.57,0,0,0,.6.43A2.88,2.88,0,0,0,51,20a3,3,0,0,0,0-6Z"></path><path d="M51,52a5,5,0,0,1-5-5,4.24,4.24,0,0,1,0-.71,4.94,4.94,0,0,1,1.41-2.82,5.15,5.15,0,0,1,1.13-.85A5,5,0,1,1,51,52Zm0-8a3,3,0,0,0-1.44.37,3.43,3.43,0,0,0-.7.52,3,3,0,0,0-.83,1.7A3.29,3.29,0,0,0,48,47a3,3,0,1,0,3-3Z"></path><path d="M14,45a5,5,0,1,1,4.58-7A4.85,4.85,0,0,1,19,40a5,5,0,0,1-5,5Zm0-8a3,3,0,0,0,0,6,3,3,0,0,0,3-3,2.82,2.82,0,0,0-.25-1.19A3,3,0,0,0,14,37Z"></path><path d="M32,38a5,5,0,0,1-4.58-3A4.85,4.85,0,0,1,27,33a5,5,0,0,1,9.74-1.57,4.84,4.84,0,0,1,0,3.16,4.93,4.93,0,0,1-1.18,1.94A5.05,5.05,0,0,1,32,38Zm0-8a3,3,0,0,0-3,3,2.82,2.82,0,0,0,.25,1.19,3,3,0,0,0,4.88.93A3.06,3.06,0,0,0,34.84,34,2.93,2.93,0,0,0,35,33a2.88,2.88,0,0,0-.15-.93A3,3,0,0,0,32,30Z"></path><rect x="40" y="15.2" width="2" height="30.6" transform="translate(-9.92 26.21) rotate(-31.83)"></rect><rect x="34.45" y="48" width="13.1" height="2" transform="translate(-15.79 19.73) rotate(-22.81)"></rect><path d="M31,19a4.92,4.92,0,0,1-3.9-1.88,5,5,0,1,1,8.81-4A4,4,0,0,1,36,14a5,5,0,0,1-5,5Zm0-8a3,3,0,1,0,0,6,3,3,0,0,0,1.44-.37,3.09,3.09,0,0,0,1.19-1.19A2.91,2.91,0,0,0,34,14a2.51,2.51,0,0,0,0-.51A3,3,0,0,0,31,11Z"></path><rect x="15.16" y="19" width="13.69" height="2" transform="translate(-7.14 14.07) rotate(-30.77)"></rect><rect x="25.27" y="33" width="31.46" height="2" transform="translate(-9.27 51.6) rotate(-58.96)"></rect><rect x="40" y="9.04" width="2" height="12.93" transform="translate(12.36 48.68) rotate(-69.91)"></rect><path d="M31,56a5,5,0,0,1-5-5,5,5,0,0,1,10,0,4.24,4.24,0,0,1,0,.71A5,5,0,0,1,31,56Zm0-8a3,3,0,0,0-3,3,3,3,0,0,0,6,.41A3.17,3.17,0,0,0,34,51a3,3,0,0,0-1.58-2.64A2.91,2.91,0,0,0,31,48Z"></path><rect x="17.33" y="35.5" width="11.34" height="2" transform="translate(-10.91 9.83) rotate(-19.59)"></rect><rect x="40.5" y="32.13" width="2" height="15.73" transform="matrix(0.53, -0.85, 0.85, 0.53, -14.42, 53.98)"></rect><rect x="21.5" y="39.36" width="2" height="12.29" transform="translate(-28.11 41.58) rotate(-59.26)"></rect><rect x="33.03" y="24" width="16.95" height="2" transform="translate(-6.72 29.64) rotate(-36.56)"></rect><rect x="21.5" y="23.36" width="2" height="12.28" transform="matrix(0.31, -0.95, 0.95, 0.31, -12.51, 41.77)"></rect><rect x="20.99" y="27.09" width="2" height="22.82" transform="translate(-18.7 20.89) rotate(-36.86)"></rect><rect x="10.96" y="26" width="23.09" height="2" transform="translate(-12.48 30.39) rotate(-55.73)"></rect></svg></svg> <defs><filter id="colors5404732428"><feColorMatrix type="matrix" values="0 0 0 0 0  0 0 0 0 0  0 0 0 0 0  0 0 0 1 0" class="icon-fecolormatrix"></feColorMatrix></filter> <filter id="colorsf8240122072"><feColorMatrix type="matrix" values="0 0 0 0 0.99609375  0 0 0 0 0.99609375  0 0 0 0 0.99609375  0 0 0 1 0" class="icon-fecolormatrix"></feColorMatrix></filter> <filter id="colorsb5530959168"><feColorMatrix type="matrix" values="0 0 0 0 0  0 0 0 0 0  0 0 0 0 0  0 0 0 1 0" class="icon-fecolormatrix"></feColorMatrix></filter></defs></g></g> <g transform="translate(0,65.78837203979492)"><g data-gra="path-name" fill-rule="" class="tp-name iconsvg-namesvg"><g transform="scale(1)"><g><path d="M24.89-29.61L23.6-27.5Q23.21-26.78 22.39-26.78L22.39-26.78Q21.91-26.78 21.29-27.14 20.67-27.5 19.78-27.93 18.88-28.37 17.65-28.75 16.41-29.12 14.72-29.12L14.72-29.12Q13.26-29.12 12.09-28.75 10.92-28.37 10.09-27.72 9.26-27.07 8.82-26.21 8.38-25.35 8.38-24.34L8.38-24.34Q8.38-23.07 9.12-22.23 9.85-21.39 11.05-20.77 12.25-20.15 13.78-19.68 15.31-19.21 16.92-18.67 18.53-18.14 20.05-17.48 21.58-16.84 22.78-15.86 23.98-14.88 24.72-13.47 25.45-12.06 25.45-10.08L25.45-10.08Q25.45-7.8 24.64-5.87 23.82-3.93 22.23-2.52 20.64-1.1 18.33-0.29 16.02 0.52 13 0.52L13 0.52Q9.55 0.52 6.76-0.6 3.97-1.72 2.02-3.48L2.02-3.48 3.38-5.69Q3.64-6.11 4-6.34 4.36-6.57 4.94-6.57L4.94-6.57Q5.53-6.57 6.17-6.11 6.83-5.66 7.75-5.1 8.68-4.55 9.99-4.09 11.31-3.64 13.29-3.64L13.29-3.64Q14.98-3.64 16.25-4.08 17.52-4.52 18.36-5.27 19.21-6.01 19.61-6.99 20.02-7.96 20.02-9.07L20.02-9.07Q20.02-10.43 19.29-11.33 18.56-12.22 17.36-12.85 16.15-13.49 14.61-13.96 13.07-14.43 11.46-14.95 9.85-15.47 8.3-16.14 6.76-16.8 5.56-17.81 4.36-18.82 3.62-20.3 2.89-21.78 2.89-23.89L2.89-23.89Q2.89-25.77 3.67-27.51 4.45-29.25 5.95-30.57 7.44-31.88 9.62-32.66 11.8-33.44 14.59-33.44L14.59-33.44Q17.84-33.44 20.43-32.42 23.01-31.39 24.89-29.61L24.89-29.61ZM33.15-47.87L38.97-47.87 38.97-19.7 40.46-19.7Q41.11-19.7 41.54-19.87 41.96-20.05 42.48-20.61L42.48-20.61 52.88-31.75Q53.37-32.27 53.85-32.6 54.34-32.92 55.15-32.92L55.15-32.92 60.42-32.92 48.3-20.02Q47.84-19.47 47.4-19.05 46.96-18.62 46.41-18.3L46.41-18.3Q47-17.91 47.47-17.4 47.94-16.9 48.36-16.25L48.36-16.25 61.23 0 56.03 0Q55.31 0 54.81-0.28 54.31-0.55 53.85-1.14L53.85-1.14 43.03-14.63Q42.54-15.31 42.05-15.52 41.57-15.73 40.59-15.73L40.59-15.73 38.97-15.73 38.97 0 33.15 0 33.15-47.87ZM95.03-32.92L76.67 9.72Q76.38 10.37 75.94 10.76 75.5 11.15 74.59 11.15L74.59 11.15 70.3 11.15 76.31-1.92 62.73-32.92 67.73-32.92Q68.48-32.92 68.9-32.55 69.32-32.18 69.52-31.72L69.52-31.72 78.33-10.99Q78.62-10.27 78.83-9.55 79.04-8.84 79.2-8.09L79.2-8.09Q79.43-8.84 79.66-9.55 79.89-10.27 80.18-11.02L80.18-11.02 88.73-31.72Q88.92-32.24 89.39-32.58 89.86-32.92 90.42-32.92L90.42-32.92 95.03-32.92ZM112.48-33.44L112.48-33.44Q115.44-33.44 117.94-32.45 120.45-31.46 122.27-29.59 124.09-27.72 125.11-24.98 126.13-22.23 126.13-18.72L126.13-18.72Q126.13-17.36 125.84-16.9 125.55-16.45 124.74-16.45L124.74-16.45 102.83-16.45Q102.9-13.33 103.68-11.02 104.46-8.71 105.82-7.17 107.19-5.62 109.07-4.86 110.96-4.09 113.3-4.09L113.3-4.09Q115.47-4.09 117.05-4.6 118.63-5.1 119.76-5.69 120.9-6.27 121.66-6.78 122.43-7.28 122.98-7.28L122.98-7.28Q123.7-7.28 124.09-6.73L124.09-6.73 125.71-4.62Q124.64-3.31 123.14-2.36 121.65-1.4 119.94-0.78 118.24-0.16 116.42 0.15 114.6 0.46 112.81 0.46L112.81 0.46Q109.4 0.46 106.52-0.7 103.64-1.85 101.55-4.08 99.45-6.31 98.28-9.59 97.11-12.87 97.11-17.13L97.11-17.13Q97.11-20.57 98.17-23.56 99.22-26.55 101.21-28.75 103.19-30.94 106.05-32.19 108.91-33.44 112.48-33.44ZM112.61-29.19L112.61-29.19Q108.42-29.19 106.02-26.76 103.61-24.34 103.03-20.05L103.03-20.05 120.93-20.05Q120.93-22.07 120.38-23.74 119.83-25.41 118.76-26.63 117.68-27.85 116.14-28.52 114.6-29.19 112.61-29.19Z" transform="translate(-2.0199999809265137, 47.869998931884766)"></path></g> <!----> <!----> <!----> <!----> <!----> <!----> <!----></g></g> <!----></g></g><defs v-gra="od"></defs></svg>